<mxfile host="Electron" agent="Mozilla/5.0 (Windows NT 10.0; Win64; x64) AppleWebKit/537.36 (KHTML, like Gecko) draw.io/26.0.9 Chrome/128.0.6613.186 Electron/32.2.5 Safari/537.36" version="26.0.9">
  <diagram id="C5RBs43oDa-KdzZeNtuy" name="Page-1">
    <mxGraphModel dx="1098" dy="688" grid="1" gridSize="10" guides="1" tooltips="1" connect="1" arrows="1" fold="1" page="1" pageScale="1" pageWidth="827" pageHeight="1169" background="light-dark(#e3dede, #dcdcdc)" math="0" shadow="0">
      <root>
        <mxCell id="WIyWlLk6GJQsqaUBKTNV-0" />
        <mxCell id="WIyWlLk6GJQsqaUBKTNV-1" parent="WIyWlLk6GJQsqaUBKTNV-0" />
        <mxCell id="WIyWlLk6GJQsqaUBKTNV-3" value="FRONT END" style="rounded=1;whiteSpace=wrap;html=1;fontSize=12;glass=0;strokeWidth=1;shadow=0;rotation=0;fillColor=#60a917;strokeColor=#2D7600;fontColor=#ffffff;" parent="WIyWlLk6GJQsqaUBKTNV-1" vertex="1">
          <mxGeometry x="20" y="10" width="790" height="30" as="geometry" />
        </mxCell>
        <mxCell id="gpxwQRkNLIiIdl80cpAf-0" value="USUARIO ACESSA PAGINA" style="rounded=1;whiteSpace=wrap;html=1;" parent="WIyWlLk6GJQsqaUBKTNV-1" vertex="1">
          <mxGeometry x="310" y="120" width="220" height="30" as="geometry" />
        </mxCell>
        <mxCell id="DweZ8iaDXKxLCUPyPavk-12" value="" style="edgeStyle=orthogonalEdgeStyle;rounded=0;orthogonalLoop=1;jettySize=auto;html=1;" parent="WIyWlLk6GJQsqaUBKTNV-1" source="gpxwQRkNLIiIdl80cpAf-3" target="DweZ8iaDXKxLCUPyPavk-6" edge="1">
          <mxGeometry relative="1" as="geometry">
            <Array as="points">
              <mxPoint x="420" y="250" />
              <mxPoint x="420" y="250" />
            </Array>
          </mxGeometry>
        </mxCell>
        <mxCell id="gpxwQRkNLIiIdl80cpAf-3" value="VISUALIZA TELA DE LOGIN" style="rounded=1;whiteSpace=wrap;html=1;" parent="WIyWlLk6GJQsqaUBKTNV-1" vertex="1">
          <mxGeometry x="347" y="190" width="146" height="40" as="geometry" />
        </mxCell>
        <mxCell id="DweZ8iaDXKxLCUPyPavk-0" value="" style="swimlane;startSize=0;fillColor=#fff2cc;strokeColor=#d6b656;" parent="WIyWlLk6GJQsqaUBKTNV-1" vertex="1">
          <mxGeometry x="30" y="50" width="130" height="70" as="geometry" />
        </mxCell>
        <mxCell id="DweZ8iaDXKxLCUPyPavk-2" value="&lt;h3&gt;&lt;span&gt;HTML5&lt;br&gt;CSS&lt;br&gt;JAVASCRIPT&lt;br&gt;&lt;span style=&quot;color: light-dark(rgb(0, 0, 0), rgb(255, 255, 255));&quot;&gt;REACT&lt;/span&gt;&lt;/span&gt;&lt;/h3&gt;" style="text;html=1;align=center;verticalAlign=middle;whiteSpace=wrap;rounded=0;fillColor=#dae8fc;strokeColor=#6c8ebf;" parent="DweZ8iaDXKxLCUPyPavk-0" vertex="1">
          <mxGeometry width="130" height="70" as="geometry" />
        </mxCell>
        <mxCell id="DweZ8iaDXKxLCUPyPavk-5" value="INICIO" style="ellipse;whiteSpace=wrap;html=1;" parent="WIyWlLk6GJQsqaUBKTNV-1" vertex="1">
          <mxGeometry x="355" y="50" width="120" height="30" as="geometry" />
        </mxCell>
        <mxCell id="DweZ8iaDXKxLCUPyPavk-6" value="ENTRAR COM EMAIL+SENHA" style="rounded=1;whiteSpace=wrap;html=1;" parent="WIyWlLk6GJQsqaUBKTNV-1" vertex="1">
          <mxGeometry x="347" y="270" width="146" height="40" as="geometry" />
        </mxCell>
        <mxCell id="DweZ8iaDXKxLCUPyPavk-7" value="CADASTRAR" style="rounded=1;whiteSpace=wrap;html=1;" parent="WIyWlLk6GJQsqaUBKTNV-1" vertex="1">
          <mxGeometry x="100" y="270" width="146" height="40" as="geometry" />
        </mxCell>
        <mxCell id="DweZ8iaDXKxLCUPyPavk-8" value="NOME&lt;br&gt;SOBRENOME&lt;br&gt;EMAIL&lt;br&gt;SENHA&lt;br&gt;APELIDO" style="rounded=1;whiteSpace=wrap;html=1;" parent="WIyWlLk6GJQsqaUBKTNV-1" vertex="1">
          <mxGeometry x="100" y="360" width="146" height="80" as="geometry" />
        </mxCell>
        <mxCell id="DweZ8iaDXKxLCUPyPavk-9" value="" style="endArrow=classic;html=1;rounded=0;" parent="WIyWlLk6GJQsqaUBKTNV-1" edge="1">
          <mxGeometry width="50" height="50" relative="1" as="geometry">
            <mxPoint x="419.5" y="150" as="sourcePoint" />
            <mxPoint x="419.5" y="190" as="targetPoint" />
            <Array as="points" />
          </mxGeometry>
        </mxCell>
        <mxCell id="DweZ8iaDXKxLCUPyPavk-10" value="" style="endArrow=classic;html=1;rounded=0;entryX=1;entryY=0.5;entryDx=0;entryDy=0;exitX=0;exitY=0.5;exitDx=0;exitDy=0;" parent="WIyWlLk6GJQsqaUBKTNV-1" source="DweZ8iaDXKxLCUPyPavk-6" target="DweZ8iaDXKxLCUPyPavk-7" edge="1">
          <mxGeometry width="50" height="50" relative="1" as="geometry">
            <mxPoint x="290" y="260" as="sourcePoint" />
            <mxPoint x="290" y="330" as="targetPoint" />
          </mxGeometry>
        </mxCell>
        <mxCell id="DweZ8iaDXKxLCUPyPavk-11" value="" style="endArrow=classic;html=1;rounded=0;" parent="WIyWlLk6GJQsqaUBKTNV-1" edge="1">
          <mxGeometry width="50" height="50" relative="1" as="geometry">
            <mxPoint x="172.5" y="310" as="sourcePoint" />
            <mxPoint x="172.5" y="360" as="targetPoint" />
          </mxGeometry>
        </mxCell>
        <mxCell id="DweZ8iaDXKxLCUPyPavk-14" value="OU" style="text;html=1;align=center;verticalAlign=middle;whiteSpace=wrap;rounded=0;" parent="WIyWlLk6GJQsqaUBKTNV-1" vertex="1">
          <mxGeometry x="260" y="260" width="60" height="30" as="geometry" />
        </mxCell>
        <mxCell id="DweZ8iaDXKxLCUPyPavk-15" value="" style="edgeStyle=orthogonalEdgeStyle;rounded=0;orthogonalLoop=1;jettySize=auto;html=1;" parent="WIyWlLk6GJQsqaUBKTNV-1" edge="1">
          <mxGeometry relative="1" as="geometry">
            <mxPoint x="419.5" y="80" as="sourcePoint" />
            <mxPoint x="419.5" y="120" as="targetPoint" />
            <Array as="points">
              <mxPoint x="419.5" y="100" />
              <mxPoint x="419.5" y="100" />
            </Array>
          </mxGeometry>
        </mxCell>
        <mxCell id="DweZ8iaDXKxLCUPyPavk-16" value="ABRE COM MODAL&lt;div&gt;&lt;br&gt;&lt;/div&gt;" style="text;html=1;align=center;verticalAlign=bottom;whiteSpace=wrap;rounded=0;fillColor=#fff2cc;strokeColor=#d6b656;fontSize=11;fontStyle=0;dashed=1;" parent="WIyWlLk6GJQsqaUBKTNV-1" vertex="1">
          <mxGeometry x="30" y="300" width="60" height="70" as="geometry" />
        </mxCell>
        <mxCell id="DweZ8iaDXKxLCUPyPavk-17" value="" style="endArrow=classic;html=1;rounded=1;entryX=0;entryY=1;entryDx=0;entryDy=0;strokeWidth=1;curved=0;" parent="WIyWlLk6GJQsqaUBKTNV-1" target="DweZ8iaDXKxLCUPyPavk-6" edge="1">
          <mxGeometry width="50" height="50" relative="1" as="geometry">
            <mxPoint x="246" y="400" as="sourcePoint" />
            <mxPoint x="296" y="350" as="targetPoint" />
            <Array as="points" />
          </mxGeometry>
        </mxCell>
        <mxCell id="DweZ8iaDXKxLCUPyPavk-19" value="VISUALIZA TELA CHAT" style="rounded=1;whiteSpace=wrap;html=1;" parent="WIyWlLk6GJQsqaUBKTNV-1" vertex="1">
          <mxGeometry x="347" y="360" width="146" height="40" as="geometry" />
        </mxCell>
        <mxCell id="DweZ8iaDXKxLCUPyPavk-20" value="" style="edgeStyle=orthogonalEdgeStyle;rounded=0;orthogonalLoop=1;jettySize=auto;html=1;entryX=0.5;entryY=0;entryDx=0;entryDy=0;" parent="WIyWlLk6GJQsqaUBKTNV-1" target="DweZ8iaDXKxLCUPyPavk-19" edge="1">
          <mxGeometry relative="1" as="geometry">
            <mxPoint x="419.5" y="310" as="sourcePoint" />
            <mxPoint x="419.5" y="350" as="targetPoint" />
            <Array as="points" />
          </mxGeometry>
        </mxCell>
        <mxCell id="DweZ8iaDXKxLCUPyPavk-22" value="" style="shape=image;verticalLabelPosition=bottom;labelBackgroundColor=default;verticalAlign=top;aspect=fixed;imageAspect=0;image=data:image/png,iVBORw0KGgoAAAANSUhEUgAAAhUAAAHPCAYAAADkqSiqAAAAAXNSR0IArs4c6QAAAARnQU1BAACxjwv8YQUAAAAJcEhZcwAADsMAAA7DAcdvqGQAAAs0SURBVHhe7d29jlzlAcfhGYpQUUTQQOkmUXIFyTVYMQ1Kj8Q1oLTJRaTgJuLgy0g6p3UH1JASJYtHmVEWNB/n43dmmTPPI1k+Wlmu3v3vb9+ZtbcPb20AAGZ6Z/87AMAs+U3FdrvdP3GPXHwB3K8kKoQExwgMgPsyKyrEBEP8nOLCmQXu1TW2eHJUGGfGeqq4cFYBfmypPZ4UFUaaqa4ZFs4pwHn1Jo+KiqEj/ezl8/0T9+TNi1f7p/OuERaCAmC4apfTqBATHFwKjCXDQlAAjFfs8uCoODfUYoJTzsVFHRZu0gCOu9ZN8qCoEBTMca2wcJMGcNmSN8kXo0JQUFg6LJxTgHGW2OXJ/0y3oWaMJc+LoAAY79w+Xrr5PeVsVJz6Sw01U5w6N1MP746gAJiuDgv/oRirJCgAhin3cnRUGGvmKM+PmzSAxqndHHtbcTIq5lxJw1jOG8DtG3VT4TtACkueI2cUYJpiP72ngpvkZgPgOsbsrahgNdxSAMwzd0dFBQCQEBUAQEJUAAAJUQEAJEQFAJAQFQBAQlQAAAlRAQAkRAUAkBAVAEBCVAAACVEBACREBQCQEBUAQEJUAAAJUQEAJEQFAJAQFQBAQlQAAAlRAQAkRAUAkBAVAEBCVAAACVEBACREBQCQEBUAQEJUAAAJUQEAJEQFAJAQFQBAQlQAAAlRAQAkRAUAkBAVAEBCVAAACVEBACREBQCQEBUAQEJUAAAJUQEAJEQFAJAQFQBAQlQAAAlRwd34/evvNl9+/nrztz+93vzuX9/tPwpARVRwNz77+9ebX/77+80H336/+fTVN/uPAlARFdyN/76z3T9tNv959AxAQ1RwN/768Uebb95/d/PVB7/YfPGHD/cfBaAiKrgb//j1e5tP/vKbzR///NvNP3/13v6jAFREBQCQEBUAQEJUAAAJUQEAJEQFAJAQFQBAQlQAAAlRAQAkRAUAkBAVAEBCVAAACVEBACREBQCQEBUAQEJUAAAJUQEAJEQFAJAQFQBAQlQAAAlRAQAkRAUAkBAVAEBCVAAACVEBACREBQCQEBUAQEJUAAAJUQEAJEQFAJAQFQBAQlQAAAlRAQAkRAUAkBAVAEBCVAAACVEBACREBQCQEBUAQEJUAAAJUQEAJEQFAJAQFQBAQlQAAAlRAQAkRAUAkBAVAEBCVAAACVEBACREBQCQEBUAQEJUAAAJUQEAJEQFAJAQFQBAQlQAAAlRAQAkRAUAkBAVAEBCVAAACVEBACREBQCQEBUAQEJUAAAJUQEAJEQFAJAQFQBAQlQAAAlRAQAkRAUAkBAVAEBCVAAACVEBACREBQCQEBUAQEJUAAAJUQEAJEQFAJAQFQBAQlQAAAlRAQAkRAUAkBAVAEBCVAAACVEBACREBQCQEBUAQEJUAAAJUQEAJEQFAJAQFQBAQlQAAAlRAQAkRAUAkBAVAEBCVAAACVEBACREBQCQEBUAQEJUAAAJUQEAJEQFAJAQFQBAQlQAAAlRAQAkRAUAkBAVAEBCVAAACVEBACREBQCQEBUAQEJUAAAJUQEAJEQFAJAQFQBAQlQAAAlRAQAkRAUAkBAVAEBCVAAACVEBACREBQCQEBUAQEJUAAAJUQEAJEQFAJAQFQBAQlQAAAlRAQAkRAUAkBAVAEBCVAAACVEBACREBQCQEBUAQEJUAAAJUQEAJEQFAJAQFQBAQlQAAAlRAQAkRAUAkBAVAEBCVAAACVEBACREBQCQEBUAQEJUAAAJUQEAJEQFAJAQFQBAQlQAAAlRAQAkRAUAkBAVAEBCVAAACVEBACREBQCQEBUAQEJUAAAJUQEAJEQFAJAQFQBAQlQAAAlRAQAkRAUAkBAVAEBCVAAACVEBACREBQCQEBUAQEJUAAAJUQEAJEQFAJAQFQBAQlQAAAlRAQAkRAUAkBAVAEBCVAAACVEBACREBQCQEBUAQEJUAAAJUQEAJEQFAJAQFQBAQlQAAAlRAQAkRAUAkBAVAEBCVAAACVEBACREBQCQEBUAQEJUAAAJUQEAJEQFAJAQFQBAQlQAAAlRAQAkRAUAkBAVAEBCVAAACVEBACREBQCQEBUAQEJUAAAJUQEAJEQFAJAQFQBAQlQAAAlRAQAkRAUAkBAVAEBCVAAACVEBACREBQCQEBUAQEJUAAAJUQEAJEQFAJAQFQBAQlQAAAlRAQAkRAUAkBAVAEBCVAAACVEBACREBQCQEBUAQEJUAAAJUQEAJEQFAJAQFQBAQlQAAAlRAQAkRAUAkBAVAEBCVAAACVEBACREBQCQEBUAQEJUsBpvXrzaPwEwxdwdFRXcpIeHh/0TAEsas7eiAgBIiApWxUsgANMU+ykquFmnruSEBcA4p3Zz7EvNooJVEhYAw5R7KSq4aecqWlgAnHduJ6e8IV5UcPOEBcB4dVDsiApWb/eJIy4A/ufSJk4Nih1RwSoM+SQQF8A9u8YGbt+O8dE13m63+6f/e/by+f4J5jl2sOfU8WPHzi4A5xUb7KaC1aniBOBeVLspKlglYQFw2W4ry70UFaxW/ckCsCZL7KOoYPUOcSEwgHv2eAuX2kNv1ORJLPlGTQCehpsKACAhKgCAhKgAABKiAgBIiAoAICEqAICEHynlSVz7R0r9fyAAx5Xb66aC1dqFxOEXAMeVWykqWB0hATDN3P0UFayKmACYb2pciApWQ1AAtMbuqjdq8iTKN2oOPfTOL8CPHdviY4bus6jgSVwzKpxbgMsuBcaQjfbyBzftXFDsYkJQAAxzaTOH3AqLCm7WpaAAYLw5YSEquEmCAmA5U8NCVLAqggKgMWVPRQU351QlCwqA1qldPbXDogIASIgKVsEtBcAyxuyrqOCmXHrnMQDXcWyPRQU3zy0FwLKG7qyoAAASogIASIgKACAhKgCAhKgAABKiAgBIiAoAICEqAICEqAAAEqICAEiICgAgISoAgISoAAASogIASIgKACAhKgCAhKgAABKiAgBIiAoAICEqAICEqAAAEqICAEiICgAgISoAgISoAAASogIASIgKACAhKgCAhKgAABKiAgBIiAoAICEqAICEqAAAEqICAEiICgAgISoAgISoAAASogIASIgKACAhKgCAhKgAABKiAgBIiAoAICEqAICEqAAAEqICAEiICgAgISoAgISoAAASogIASIgKACAhKgCAhKgAABKiAgBIiAoAICEqAICEqAAAEqICAEiICgAgISoAgISoAAASogIASIgKACAhKgCAhKgAABKiAgBIiAoAICEqAICEqAAAEqICAEiICgAgISoAgISoAAASogIASIgKACAhKgCAhKgAABKiAgBIiAoAICEqAICEqAAAEqICAEiICgAgISoAgISoAAASogIASIgKACAhKgCAhKgAABKiAgBIiAoAICEqAICEqAAAEqICAEiICgAgMSoq3rx4tX+C6epz5FwCLGvozp6MioeHh/0TLG/oeXMuAX4eju2xlz8AgMToqHDVzBxLnR/nEmAZY/b1bFScumo24Exx6tyMfUnDuQS4jrG7PfnlDwPOGNc6L84lQGPKnl6MinPfRRpwhjh3TsbeUhw4lwDLmbrbg24qDDhTLREUB84lQG/Obm/f/oFBy77dbvdPpz17+Xz/xL279EV9blAcOJcAjWK3B0fFzpAB3zHi92voDUEVFTvOJcB05W6PioqDoSMOP1XGxE85lwC9Mbs96ac/lvzCwHotfW6cS4DW2F2ddFNx4DtDhrj2F3vnEmCeqbs9KyoOjDinXDsoHnMuAcabs9tJVDxmyO/bU0bEOc4lwHHlbudRAQDcp8n/TDcAwGOiAgBIiAoAICEqAIDAZvMD2NgpOlrHT2gAAAAASUVORK5CYII=;" parent="WIyWlLk6GJQsqaUBKTNV-1" vertex="1">
          <mxGeometry x="260" y="450" width="286" height="248.44" as="geometry" />
        </mxCell>
        <mxCell id="DweZ8iaDXKxLCUPyPavk-23" value="&lt;h2&gt;TELA COM MENSAGENS&lt;/h2&gt;" style="text;html=1;align=center;verticalAlign=middle;whiteSpace=wrap;rounded=0;" parent="WIyWlLk6GJQsqaUBKTNV-1" vertex="1">
          <mxGeometry x="360" y="470" width="160" height="60" as="geometry" />
        </mxCell>
        <mxCell id="DweZ8iaDXKxLCUPyPavk-24" value="&lt;h2&gt;ESPAÇO PARA DIGITAR&lt;/h2&gt;" style="text;html=1;align=center;verticalAlign=middle;whiteSpace=wrap;rounded=0;" parent="WIyWlLk6GJQsqaUBKTNV-1" vertex="1">
          <mxGeometry x="360" y="630" width="160" height="60" as="geometry" />
        </mxCell>
        <mxCell id="DweZ8iaDXKxLCUPyPavk-25" value="&lt;b&gt;&lt;font style=&quot;font-size: 11px;&quot;&gt;LISTA DE USUARIOS CONECTADOS, ORDENADOS POR ORDEM ALFABETICA&lt;/font&gt;&lt;/b&gt;" style="text;html=1;align=center;verticalAlign=middle;whiteSpace=wrap;rounded=0;" parent="WIyWlLk6GJQsqaUBKTNV-1" vertex="1">
          <mxGeometry x="267" y="480" width="80" height="140" as="geometry" />
        </mxCell>
        <mxCell id="DweZ8iaDXKxLCUPyPavk-26" value="" style="edgeStyle=orthogonalEdgeStyle;rounded=0;orthogonalLoop=1;jettySize=auto;html=1;exitX=0.5;exitY=1;exitDx=0;exitDy=0;" parent="WIyWlLk6GJQsqaUBKTNV-1" source="DweZ8iaDXKxLCUPyPavk-19" edge="1">
          <mxGeometry relative="1" as="geometry">
            <mxPoint x="419.5" y="410" as="sourcePoint" />
            <mxPoint x="420" y="450" as="targetPoint" />
            <Array as="points" />
          </mxGeometry>
        </mxCell>
        <mxCell id="DweZ8iaDXKxLCUPyPavk-27" value="BACKEND" style="rounded=1;whiteSpace=wrap;html=1;fontSize=12;glass=0;strokeWidth=1;shadow=0;rotation=0;fillColor=#6a00ff;strokeColor=#3700CC;fontColor=#ffffff;" parent="WIyWlLk6GJQsqaUBKTNV-1" vertex="1">
          <mxGeometry x="19" y="740" width="790" height="30" as="geometry" />
        </mxCell>
        <mxCell id="DweZ8iaDXKxLCUPyPavk-29" value="- PAGINA UNICA, MUDANÇAS SÃO FEITAS APENAS POR CARDS, SEM NECESSIDADE DE RECARREGAR A PAGINA" style="whiteSpace=wrap;html=1;aspect=fixed;fillColor=#fff2cc;strokeColor=#d6b656;fontSize=10;" parent="WIyWlLk6GJQsqaUBKTNV-1" vertex="1">
          <mxGeometry x="560" y="60" width="100" height="100" as="geometry" />
        </mxCell>
        <mxCell id="x4nIO0qfQxDaJNIJ3ghW-0" value="- Após um usuario acessar o chat, deve aparecer uma notificação no tela de mensagens" style="whiteSpace=wrap;html=1;aspect=fixed;fillColor=#fff2cc;strokeColor=#d6b656;" vertex="1" parent="WIyWlLk6GJQsqaUBKTNV-1">
          <mxGeometry x="570" y="450" width="100" height="100" as="geometry" />
        </mxCell>
      </root>
    </mxGraphModel>
  </diagram>
</mxfile>
